<?xml version="1.0" encoding="UTF-8"?>
<svg id="Layer_1" data-name="Layer 1" xmlns="http://www.w3.org/2000/svg" viewBox="0 0 757.42 786.96">
  <defs>
    <style>
      .cls-1 {
        fill: #fff;
      }
    </style>
  </defs>
  <path class="cls-1" d="M368.33,195.83c-79.78,2.14-153.54,28.5-179.14,50.67-4.5,3.87-7.5,7.64-8.81,11.11-4.94,13.28-3.82,57.92-3.82,67.8v110.14c-14.85-50.83-22.33-110.24-22.33-177.94,0-26.25,26.41-47.67,80.77-65.45,43.82-14.33,96.2-22.59,143.68-22.64h.42c12.26,0,24.71.47,37.13,1.36,2.8.21,5.62.44,8.42.68-25.23.24-43.77,8.24-55.9,24.27h-.42Z"/>
  <path class="cls-1" d="M329.29,569.74h-69.97c-3.29,0-6.51-.21-9.65-.63-11.9-1.54-22.62-6.01-32.19-13.44-2.54-1.96-4.97-4.08-7.32-6.46-11.45-11.43-18.09-24.81-19.95-40.03-.37-2.98-.55-5.99-.55-9.1v-174.67c0-18.75,6.72-35.06,20.16-48.9,13.47-13.86,29.97-20.76,49.5-20.76h69.97c7.82,0,14.75.73,20.92,2.22.21.05.42.1.63.16,17.65,4.37,28.87,14.83,35.27,31.35.26.58.47,1.15.68,1.73,0,0-1.8-.03-4.81-.05h-.68c-8.18-.05-23.95-.18-35.98-.29-8.58-.08-15.24-.13-16.03-.13h-34.99c-9.6,0-17.83,3.4-24.71,10.25-6.85,6.8-10.28,14.96-10.28,24.42v174.67c0,9.36,3.4,17.49,10.2,24.37,6.8,6.88,15.06,10.3,24.79,10.3h34.99c4,0,13.23-4.47,21-12.32,8.05-8.16,9.02-25.97,9.02-25.97.78-9.78,1.41-16.89,1.88-21.99v-.03c.05-.44.08-.86.1-1.28.52-5.65.84-8.5.97-9.67.03-.47.05-.65.05-.65.05.21.1.44.16.65,5.54,24.34,30.8,36.58,30.8,36.58-.08,1.39-.18,2.77-.29,4.11-.03.21-.03.39-.05.6-3.92,43.3-21.73,64.95-63.64,64.95Z"/>
  <path class="cls-1" d="M580.94,422.98v-169.94c0-2.2-.08-4.39-.24-6.54-.42-5.75-1.39-11.3-2.9-16.53-2.09-7.35-5.23-14.3-9.41-20.81,23.11,13.62,34.8,29.83,34.8,48.45,0,49-5.02,107.86-22.25,165.36Z"/>
  <path class="cls-1" d="M553.19,489.47c.81-.76,1.67-1.54,2.54-2.43-14.96,29.97-34.38,58.26-59.46,83.05-54.54,53.92-110.11,65.5-112.46,65.97l-3.29.65-3.37-.21c-2.38-.13-58.21-4.03-113.4-53.68h42.7c39.17,25.6,72.27,27.59,72.27,27.59,0,0,76.06-15.17,133.98-101.11,15.27-2.54,28.84-9.18,40.5-19.82Z"/>
  <polygon class="cls-1" points="399.03 302.56 399.03 356.22 452.66 356.22 452.66 396.8 399.03 396.8 399.03 450.43 358.39 450.43 358.39 396.8 304.76 396.8 304.76 356.22 358.39 356.22 358.39 302.56 399.03 302.56"/>
  <path class="cls-1" d="M567.58,246.5c.21,2.12.29,4.31.29,6.54v174.67c0,16.5-5.2,31.12-15.61,43.8-1.41,1.73-2.93,3.43-4.55,5.1-1.07,1.1-2.17,2.17-3.27,3.14-6.54,5.99-13.73,10.43-21.6,13.39-7.58,2.82-15.79,4.24-24.63,4.24h-69.97c-7.82,0-14.75-.73-20.92-2.22-.21-.05-.42-.1-.63-.16-17.7-4.37-28.92-14.88-35.33-31.48-.24-.52-.44-1.05-.63-1.6,0,0,1.8.03,4.79.03h.68c8.16.08,23.85.21,35.9.31,8.6.08,15.35.13,16.13.13h34.99c9.6,0,17.83-3.4,24.71-10.25,6.85-6.8,10.28-14.96,10.28-24.42v-174.67c0-2.25-.21-4.42-.6-6.54h-97.85c-1.28,5.57-1.54,10.15-1.54,10.15-.78,9.78-1.41,16.92-1.88,21.99-.05.44-.08.89-.1,1.31-.52,5.44-.81,8.29-.94,9.54-.05.55-.08.78-.08.78-.05-.26-.1-.52-.18-.78-5.6-24.24-30.78-36.45-30.78-36.45.08-1.39.18-2.77.29-4.11.03-.21.03-.39.05-.6.05-.63.1-1.23.18-1.83,2.41-23.98,9.28-41.13,22.36-51.43,9.88-7.79,23.3-11.69,41.1-11.69h69.97c19.09,0,35.48,6.82,49.16,20.53,8.76,8.76,14.72,18.64,17.86,29.65,1.2,4.16,1.99,8.45,2.35,12.94Z"/>
</svg>