<svg xmlns="http://www.w3.org/2000/svg" version="1.1" xmlns:xlink="http://www.w3.org/1999/xlink" width="1000" height="1000"><g clip-path="url(#SvgjsClipPath1094)"><rect width="1000" height="1000" fill="#000000"></rect><g transform="matrix(1.270712615634848,0,0,1.270712615634848,18.76842533292671,-5.684341886080802e-14)"><svg xmlns="http://www.w3.org/2000/svg" version="1.1" xmlns:xlink="http://www.w3.org/1999/xlink" width="757.42" height="786.96"><svg id="Layer_1" data-name="Layer 1" xmlns="http://www.w3.org/2000/svg" viewBox="0 0 757.42 786.96">
  <defs>
    <style>
      .cls-1 {
        fill: #fff;
      }
    </style>
  <clipPath id="SvgjsClipPath1094"><rect width="1000" height="1000" x="0" y="0" rx="0" ry="0"></rect></clipPath></defs>
  <g>
    <path class="cls-1" d="M368.56,190.89c-77.97,2.1-150.06,27.86-175.08,49.53-4.4,3.78-7.33,7.46-8.61,10.86-4.83,12.98-3.73,56.61-3.73,66.26v107.64c-14.52-49.68-21.82-107.74-21.82-173.9,0-25.66,25.81-46.59,78.94-63.96,42.83-14,94.02-22.08,140.43-22.13h.41c11.99,0,24.15.46,36.29,1.33,2.73.2,5.49.43,8.23.66-24.66.23-42.78,8.05-54.64,23.72h-.41Z"></path>
    <path class="cls-1" d="M330.41,556.33h-68.39c-3.22,0-6.36-.2-9.43-.61-11.63-1.51-22.11-5.88-31.46-13.14-2.48-1.92-4.86-3.99-7.16-6.31-11.19-11.17-17.68-24.25-19.5-39.13-.36-2.91-.54-5.85-.54-8.89v-170.71c0-18.32,6.57-34.27,19.7-47.79,13.16-13.54,29.29-20.29,48.38-20.29h68.39c7.64,0,14.41.72,20.44,2.17.2.05.41.1.61.15,17.25,4.27,28.21,14.49,34.47,30.64.26.56.46,1.12.66,1.69,0,0-1.76-.03-4.7-.05h-.66c-8-.05-23.41-.18-35.16-.28-8.38-.08-14.9-.13-15.67-.13h-34.19c-9.38,0-17.43,3.32-24.15,10.02-6.7,6.64-10.04,14.62-10.04,23.87v170.71c0,9.15,3.32,17.1,9.97,23.82,6.64,6.72,14.72,10.07,24.23,10.07h34.19c3.91,0,12.93-4.37,20.52-12.04,7.87-7.97,8.82-25.38,8.82-25.38.77-9.56,1.38-16.51,1.84-21.49v-.03c.05-.43.08-.84.1-1.25.51-5.52.82-8.31.95-9.46.03-.46.05-.64.05-.64.05.2.1.43.15.64,5.42,23.79,30.1,35.75,30.1,35.75-.08,1.35-.18,2.71-.28,4.01-.03.2-.03.38-.05.59-3.83,42.32-21.24,63.48-62.2,63.48Z"></path>
    <path class="cls-1" d="M576.35,412.89v-166.08c0-2.15-.08-4.29-.23-6.39-.41-5.62-1.35-11.04-2.84-16.15-2.04-7.18-5.11-13.98-9.2-20.34,22.59,13.31,34.01,29.16,34.01,47.35,0,47.89-4.91,105.42-21.75,161.61Z"></path>
    <path class="cls-1" d="M549.24,477.88c.79-.74,1.64-1.51,2.48-2.38-14.62,29.29-33.61,56.94-58.11,81.16-53.31,52.7-107.61,64.02-109.91,64.48l-3.22.64-3.3-.2c-2.33-.13-56.89-3.94-110.83-52.46h41.73c38.28,25.02,70.63,26.96,70.63,26.96,0,0,74.34-14.82,130.95-98.82,14.92-2.48,28.19-8.97,39.59-19.37Z"></path>
    <polygon class="cls-1" points="398.56 295.21 398.56 347.65 450.98 347.65 450.98 387.31 398.56 387.31 398.56 439.72 358.85 439.72 358.85 387.31 306.44 387.31 306.44 347.65 358.85 347.65 358.85 295.21 398.56 295.21"></polygon>
  </g>
  <path class="cls-1" d="M564.28,244.38v.54c.03.43.03.84.03,1.28v171.94c0,18.45-6.62,34.5-19.86,48.12-1.05,1.07-2.15,2.15-3.22,3.12-11.73,10.71-25.61,16.48-41.66,17.25-1.28.08-2.56.1-3.83.1h-68.9c-7.69,0-14.52-.74-20.6-2.2-.23-.05-.46-.1-.69-.18-17.4-4.32-28.44-14.67-34.73-31.05-.2-.49-.38-.97-.56-1.48,0,0,1.74.03,4.6.03h.77c8.02.08,23.41.2,35.24.31,8.54.08,15.21.13,15.97.13h34.45c9.46,0,17.56-3.37,24.3-10.09,6.77-6.7,10.15-14.72,10.15-24.05v-171.94c0-9.23-3.35-17.22-10.07-24-6.7-6.75-14.82-10.15-24.38-10.15h-34.45c-3.94,0-13.03,4.42-20.67,12.14-7.92,8.02-8.87,25.56-8.87,25.56-.79,9.63-1.41,16.66-1.87,21.65-.05.46-.08.92-.13,1.35v.03c-.49,5.39-.77,8.18-.89,9.38-.05.51-.08.72-.08.72-.05-.23-.1-.49-.18-.72-5.47-23.92-30.31-35.96-30.31-35.96.08-1.35.2-2.66.31-3.94,0-.23.03-.46.05-.69,2.22-24.56,8.97-42.04,22.18-52.44.66-.51,1.35-1.02,2.04-1.53,9.51-6.64,22.11-9.99,38.41-9.99h68.9c18.76,0,34.91,6.75,48.38,20.21,8.61,8.64,14.49,18.35,17.56,29.18.97,3.35,1.69,6.8,2.1,10.35t0,.05s.03.03.03.05c.33.97.51,1.94.51,2.89,0,1.33,0,2.68-.03,4.04Z"></path>
</svg></svg></g></g></svg>